# xmcd
#
# Track frame offsets:
#	150
#	15611
#	35341
#	52225
#	66446
#	81701
#	94714
#	109966
#	125150
#	143733
#	159194
#	178924
#	195808
#	210029
#	225284
#	238297
#	253549
#	268733
#
# Disc length: 3830
#
# Revision: 2
# Processed by: cddbd v1.5.2PL0 Copyright (c) Steve Scherf et al.
# Submitted via: kJams Pro (development) 1.0patch45.20
#
DISCID=fb0ef412
DTITLE=Various Artist - NSC 3054
DYEAR=2004
DGENRE=Country
TTITLE0=Gretchen Wilson - Here For The Party
TTITLE1=Tim McGraw - Live Like You Were Dying
TTITLE2=Keith Urban - Days Go By
TTITLE3=Alan Jackson - Too Much Of A Good Thing
TTITLE4=Trick Pony - Feels Like Today
TTITLE5=Gary Allan - The Bride
TTITLE6=Gary Allan - Nothing On But The Radio
TTITLE7=Josh Turner - What It Ain't
TTITLE8=Kid Rock - Single Father
TTITLE9=Gretchen Wilson - Vocals - Here For The Party
TTITLE10=Tim McGraw - Vocals - Live Like You Were Dying
TTITLE11=Keith Urban - Vocals - Days Go By
TTITLE12=Alan Jackson - Vocals - Too Much Of A Good Thing
TTITLE13=Trick Pony - Vocals - Feels Like Today
TTITLE14=Gary Allan - Vocals - The Bride
TTITLE15=Gary Allan - Vocals - Nothing On But The Radio
TTITLE16=Josh Turner - Vocals - What It Ain't
TTITLE17=Kid Rock - Vocals - Single Father
EXTD=
EXTT0=
EXTT1=
EXTT2=
EXTT3=
EXTT4=
EXTT5=
EXTT6=
EXTT7=
EXTT8=
EXTT9=
EXTT10=
EXTT11=
EXTT12=
EXTT13=
EXTT14=
EXTT15=
EXTT16=
EXTT17=
PLAYORDER=
